<?xml version="1.0" encoding="UTF-8"?> <svg xmlns="http://www.w3.org/2000/svg" viewBox="703.0008544921875 249.70750427246094 514.0009765625 411.583984375" width="514.0009765625" height="411.583984375"><path fill="#f2577c" fill-opacity="1" stroke="" stroke-opacity="1" stroke-width="1" fill-rule="evenodd" id="tSvgcf1f43c21b" d="M 1215.9534999999998 403.5235 C 1215.5265 390.04949999999997 1204.6464999999998 379.20349999999996 1191.1644999999999 378.74249999999995 C 1187.6145 378.69949999999994 1187.6145 378.69949999999994 1187.6145 378.69949999999994 C 1179.3374999999999 378.69949999999994 1156.3564999999999 379.50149999999996 1127.9405 385.03149999999994 C 1122.8545 346.63149999999996 1112.5545 319.36749999999995 1111.7015 317.19149999999996 C 1109.1754999999998 310.68049999999994 1104.0895 305.49249999999995 1097.6385 302.82149999999996 C 1094.4985 301.5245 1091.1705 300.8755 1087.8425 300.8755 C 1084.3265 300.8755 1080.8195 301.60049999999995 1077.5345 303.04249999999996 C 1075.6575 303.8705 1054.9805000000001 313.1885 1029.1844999999998 331.34749999999997 C 1006.5794999999999 288.33949999999993 980.4254999999999 260.61449999999996 978.5055 258.60949999999997 C 973.6675 253.55749999999998 966.9855 250.70749999999998 960.0055 250.70749999999998 C 953.0255 250.70749999999998 946.3435 253.55749999999998 941.5135 258.60049999999995 C 939.5935 260.60549999999995 913.4045 288.3735 890.7915 331.4235 C 865.0545 313.31549999999993 844.3534999999999 303.86049999999994 842.4845 303.03349999999995 C 839.1995 301.5915 835.6914999999999 300.8665 832.1765 300.8665 C 828.8485 300.8665 825.5205 301.51449999999994 822.3805 302.81249999999994 C 815.9295 305.48349999999994 810.8515 310.68049999999994 808.3175 317.18249999999995 C 807.4725 319.35849999999994 797.1725 346.61349999999993 792.0875 385.0225 C 763.6545 379.48449999999997 740.6825 378.69949999999994 732.4055 378.69949999999994 C 728.8385 378.74249999999995 728.8385 378.74249999999995 728.8385 378.74249999999995 C 715.3645 379.20349999999996 704.4755 390.04949999999997 704.0495 403.5235 C 703.8955 408.31949999999995 701.1735 521.8725 771.7955 592.5025 C 836.3164999999999 657.0235 937.5645 660.2915 957.2075 660.2915 C 959.8354999999999 660.2574999999999 959.8354999999999 660.2574999999999 959.8354999999999 660.2574999999999 C 959.8865 660.2574999999999 959.9375 660.2915 959.9894999999999 660.2915 C 960.0405 660.2915 960.0915 660.2574999999999 960.1434999999999 660.2574999999999 C 962.7715 660.2915 962.7715 660.2915 962.7715 660.2915 C 982.4155 660.2915 1083.6634999999999 657.0235 1148.1835 592.5025 C 1218.8285 521.8805 1216.1064999999999 408.3275 1215.9534999999998 403.5235Z M 1087.8425 326.4675 C 1087.8425 326.4675 1098.0994999999998 353.3305 1102.7845 391.03049999999996 C 1087.9534999999998 395.18649999999997 1072.5425 400.7674999999999 1057.2424999999998 408.23349999999994 C 1053.2745 389.1785 1047.3265 371.3185 1040.3204999999998 354.9855 C 1066.4665 336.0415 1087.8425 326.4675 1087.8425 326.4675Z M 832.1664999999999 326.4675 C 832.1664999999999 326.4675 853.5424999999999 335.9905 879.7054999999999 354.93449999999996 C 872.6824999999999 371.3185 866.7094999999999 389.24749999999995 862.7414999999999 408.3705 C 847.4414999999999 400.90349999999995 832.0554999999999 395.23749999999995 817.2164999999999 391.07349999999997 C 821.9005 353.3565 832.1664999999999 326.4675 832.1664999999999 326.4675Z M 789.9095 574.4034999999999 C 726.3014999999999 510.7965 729.6384999999999 404.3345 729.6384999999999 404.3345 C 729.6384999999999 404.3345 730.6025 404.3085 732.3944999999999 404.3085 C 745.8084999999999 404.3085 805.5935 406.4415 858.5764999999999 434.9855 C 857.9624999999999 441.71849999999995 857.6034999999999 448.5535 857.6034999999999 455.49949999999995 C 857.6034999999999 534.3045 900.3725 600.8734999999999 924.8715 632.5745 C 888.1705 628.2145 830.4005 614.8945 789.9095 574.4034999999999Z M 960.5674999999999 634.0944999999999 C 960.0725 633.9325 959.5864999999999 633.7785 958.9544999999999 633.5485 C 949.9435 623.7265 883.2044999999999 547.7885 883.2044999999999 455.5005 C 883.2044999999999 356.53049999999996 960.0045 276.3005 960.0045 276.3005 C 960.0045 276.3005 1036.8045 356.5305 1036.8045 455.5005 C 1036.8045 550.4675 966.2845 627.9675 960.5674999999999 634.0944999999999Z M 1130.1074999999998 574.4034999999999 C 1089.6164999999999 614.8944999999999 1031.8464999999999 628.2144999999999 995.1444999999999 632.5754999999999 C 1019.6354999999999 600.8744999999999 1062.4044999999999 534.3054999999999 1062.4044999999999 455.5005 C 1062.4044999999999 448.51149999999996 1062.0465 441.6335 1061.4144999999999 434.8585 C 1114.3974999999998 406.3405 1174.2084999999997 404.3005 1187.6135 404.3005 C 1189.4054999999998 404.3005 1190.3694999999998 404.3265 1190.3694999999998 404.3265 C 1190.3694999999998 404.3265 1193.7065 510.7965 1130.1074999999998 574.4034999999999Z"></path><defs></defs></svg> 